<?xml version="1.0" standalone="no"?>
<!DOCTYPE svg PUBLIC "-//W3C//DTD SVG 20010904//EN"
 "http://www.w3.org/TR/2001/REC-SVG-20010904/DTD/svg10.dtd">
<svg version="1.0" xmlns="http://www.w3.org/2000/svg"
 width="512.000000pt" height="512.000000pt" viewBox="0 0 512.000000 512.000000"
 preserveAspectRatio="xMidYMid meet">
<metadata>
Created by potrace 1.11, written by Peter Selinger 2001-2013
</metadata>
<g transform="translate(0.000000,512.000000) scale(0.100000,-0.100000)"
fill="#000000" stroke="none">
<path d="M2370 5110 c0 -3 -25 -6 -55 -5 -39 0 -56 -4 -60 -14 -4 -10 -9 -11
-16 -4 -7 7 -22 8 -38 4 -14 -5 -36 -7 -48 -6 -13 1 -23 -1 -23 -5 0 -4 -10
-7 -22 -7 -31 0 -80 -13 -97 -27 -11 -8 -13 -8 -7 2 4 6 2 12 -3 12 -6 0 -11
-4 -11 -9 0 -5 -11 -8 -25 -6 -14 1 -25 -1 -25 -5 0 -4 -6 -7 -12 -8 -17 -1
-53 -10 -53 -12 0 -1 -13 -4 -29 -6 -16 -2 -33 -8 -36 -15 -4 -6 -12 -9 -18
-5 -6 3 -14 1 -17 -5 -4 -5 -13 -8 -20 -5 -8 3 -15 1 -17 -4 -2 -5 -16 -11
-32 -14 -16 -3 -38 -13 -49 -23 -11 -10 -17 -12 -13 -5 6 11 4 11 -10 3 -31
-18 -119 -54 -126 -53 -5 1 -8 -3 -8 -10 0 -6 -3 -8 -7 -5 -3 4 -15 -1 -26
-10 -10 -10 -21 -17 -23 -15 -2 1 -18 -5 -34 -13 -17 -9 -30 -12 -30 -8 0 5
-5 0 -11 -10 -6 -9 -14 -15 -20 -12 -5 4 -9 1 -9 -5 0 -6 -4 -8 -10 -5 -5 3
-10 1 -10 -5 0 -6 -4 -9 -9 -6 -5 3 -11 -1 -15 -9 -3 -8 -13 -15 -21 -15 -9 0
-13 -4 -10 -10 3 -6 -1 -7 -9 -4 -9 3 -16 1 -16 -5 0 -6 -6 -11 -12 -11 -7 0
-31 -14 -52 -30 -21 -16 -43 -27 -49 -23 -6 3 -7 1 -3 -5 4 -7 3 -12 -3 -12
-5 0 -17 -8 -27 -17 -10 -10 -21 -18 -26 -18 -5 0 -12 -5 -16 -10 -4 -6 -23
-22 -42 -35 -19 -13 -42 -31 -50 -40 -8 -9 -25 -22 -38 -29 -12 -7 -20 -17
-16 -23 4 -7 3 -8 -5 -4 -6 4 -14 1 -17 -8 -3 -8 -14 -18 -24 -21 -11 -3 -22
-15 -25 -26 -4 -11 -9 -18 -12 -16 -2 3 -35 -27 -73 -66 -94 -98 -110 -117
-145 -162 -16 -22 -40 -49 -52 -62 -12 -13 -20 -23 -18 -23 6 0 -22 -34 -50
-63 -11 -11 -14 -16 -6 -12 8 5 3 -7 -12 -27 -15 -19 -27 -40 -27 -47 0 -7 -4
-10 -8 -7 -7 4 -52 -70 -86 -141 -6 -13 -15 -23 -19 -23 -5 0 -5 -4 -2 -10 3
-5 1 -10 -4 -10 -6 0 -10 -3 -9 -7 1 -5 -17 -46 -40 -92 -23 -46 -39 -87 -36
-92 3 -5 0 -9 -5 -9 -6 0 -11 -7 -11 -15 0 -8 -5 -15 -12 -15 -6 0 -8 -3 -5
-7 4 -3 2 -12 -4 -20 -6 -7 -9 -13 -5 -13 4 0 -1 -14 -9 -30 -9 -17 -13 -35
-10 -39 3 -5 1 -11 -5 -13 -5 -1 -11 -14 -14 -28 -2 -14 -6 -27 -7 -30 -1 -3
-3 -12 -3 -20 -1 -8 -7 -14 -14 -13 -6 2 -9 -4 -5 -13 3 -9 0 -20 -8 -25 -10
-6 -11 -9 -1 -9 9 0 9 -5 3 -17 -12 -23 -25 -73 -24 -95 0 -10 -4 -18 -9 -18
-5 0 -7 -4 -3 -9 3 -5 1 -12 -3 -15 -5 -3 -8 -19 -7 -36 1 -16 -2 -30 -6 -30
-4 0 -6 -11 -4 -25 1 -14 -1 -25 -4 -25 -3 0 -7 -15 -9 -33 -6 -74 -7 -82 -17
-89 -6 -5 -5 -8 3 -8 8 0 10 -5 5 -12 -8 -13 -9 -29 -12 -114 -1 -31 -5 -43
-13 -38 -8 5 -8 3 -2 -7 12 -20 12 -59 -1 -59 -7 0 -7 -3 0 -8 12 -8 13 -27 3
-37 -4 -4 -3 -18 3 -32 12 -32 11 -36 -3 -27 -6 4 -8 3 -5 -3 4 -6 9 -27 12
-47 3 -27 1 -35 -8 -29 -9 5 -9 3 -1 -8 5 -8 11 -43 13 -79 1 -36 7 -70 11
-76 6 -6 5 -15 -2 -22 -9 -9 -9 -12 1 -12 11 0 11 -3 1 -15 -10 -11 -10 -15 0
-15 6 0 10 -6 7 -12 -2 -7 0 -21 5 -30 6 -12 5 -18 -3 -18 -8 0 -8 -4 1 -15 7
-8 14 -34 16 -57 5 -56 8 -71 16 -84 4 -6 8 -27 10 -47 1 -21 5 -37 8 -37 5 0
9 -18 12 -57 1 -7 5 -13 10 -13 5 0 6 -5 3 -10 -4 -6 -2 -16 3 -23 8 -10 19
-49 25 -84 0 -5 6 -19 13 -32 7 -14 11 -28 8 -33 -3 -4 0 -8 7 -8 6 0 9 -8 6
-20 -3 -11 -2 -18 2 -16 6 4 33 -53 36 -74 0 -3 19 -44 43 -92 23 -48 42 -92
42 -97 0 -6 3 -11 8 -11 4 0 16 -20 27 -45 11 -25 24 -45 28 -45 5 0 6 -4 3
-9 -3 -5 1 -12 10 -15 8 -3 12 -10 9 -16 -3 -5 -2 -10 2 -10 5 0 19 -20 33
-45 14 -25 28 -45 32 -45 5 0 8 -7 8 -15 0 -8 5 -15 10 -15 6 0 10 -7 10 -15
0 -8 4 -15 8 -15 5 0 14 -12 20 -26 7 -15 17 -22 24 -18 7 4 8 3 4 -4 -4 -7 4
-23 18 -37 15 -14 26 -29 26 -32 0 -7 20 -30 57 -65 12 -11 20 -25 17 -30 -3
-4 2 -8 10 -8 9 0 16 -7 16 -16 0 -8 5 -12 10 -9 6 3 10 2 10 -3 0 -15 216
-222 232 -222 4 0 8 -7 8 -15 0 -8 4 -14 8 -12 8 2 56 -32 87 -61 8 -6 18 -12
23 -12 4 0 19 -11 32 -25 13 -14 29 -25 37 -25 7 0 13 -4 13 -10 0 -5 7 -10
15 -10 8 0 15 -4 15 -10 0 -5 7 -10 15 -10 8 0 15 -4 15 -8 0 -8 34 -28 53
-30 4 -1 17 -11 29 -22 12 -11 26 -20 30 -20 5 0 26 -11 48 -25 22 -14 40 -22
40 -18 0 5 4 4 8 -2 10 -15 49 -35 67 -35 8 0 15 -5 15 -11 0 -6 7 -9 15 -5 8
3 15 2 15 -3 0 -8 38 -24 53 -22 4 1 7 -4 7 -9 0 -6 9 -10 19 -10 11 0 23 -5
27 -11 3 -6 14 -9 24 -6 11 3 21 -2 24 -10 3 -7 11 -13 18 -12 7 1 27 -3 43
-10 17 -7 38 -13 48 -14 9 -1 17 -5 17 -9 0 -4 3 -7 8 -6 12 4 116 -24 130
-35 6 -5 12 -6 12 -2 0 4 7 2 15 -5 12 -10 15 -10 15 0 0 10 3 10 14 1 8 -6
18 -11 22 -10 5 1 20 -1 34 -4 14 -4 36 -9 50 -11 14 -3 27 -5 30 -6 13 -5 28
-7 68 -8 29 -1 41 -6 36 -13 -4 -8 -1 -8 13 -1 10 6 25 7 32 3 7 -5 28 -7 47
-5 19 1 32 -1 30 -5 -3 -4 4 -7 14 -7 10 0 16 4 13 9 -3 5 4 4 16 -2 16 -9 21
-9 21 1 0 9 2 10 8 2 9 -15 64 -15 55 -1 -4 6 -1 7 8 1 20 -13 180 -14 172 -1
-3 6 -1 7 5 3 20 -12 52 -15 52 -5 0 6 8 6 20 -1 11 -6 20 -7 20 -2 0 4 19 9
43 9 89 4 162 15 169 26 6 9 8 8 8 -2 0 -11 3 -11 17 0 9 8 18 13 20 12 8 -7
64 -2 59 5 -2 4 11 7 30 7 19 -1 34 2 34 6 0 4 11 6 25 4 14 -1 25 1 25 5 0 7
10 9 54 13 13 1 22 5 20 8 -2 4 9 9 24 12 35 7 52 12 82 24 14 6 28 9 33 6 4
-2 7 1 7 7 0 6 4 9 9 6 12 -8 42 4 37 13 -3 4 7 8 22 9 14 1 36 9 49 17 13 9
28 13 33 10 6 -3 10 -2 10 3 0 5 10 13 23 17 12 4 24 9 27 10 3 1 15 6 28 10
12 4 22 12 22 17 0 6 7 8 15 4 8 -3 15 -2 15 2 0 4 9 13 21 20 17 11 20 11 14
0 -3 -7 0 -5 8 4 8 10 17 15 20 11 4 -3 7 -1 7 6 0 7 5 9 10 6 6 -3 10 -2 10
3 0 6 11 13 25 16 16 4 23 11 19 18 -5 8 -2 9 10 5 10 -4 19 -1 22 8 4 8 10
13 14 10 4 -3 13 2 20 10 7 8 19 15 26 15 8 0 14 5 14 11 0 5 13 15 30 20 17
6 30 14 30 18 0 3 18 17 40 31 22 14 40 28 40 32 0 5 6 8 14 8 8 0 17 7 20 16
4 9 9 14 12 11 3 -3 23 12 44 33 21 21 40 37 43 34 3 -3 13 6 23 18 11 13 33
35 51 48 18 13 30 27 27 32 -3 4 -1 8 5 8 13 0 101 87 101 99 0 5 9 13 20 16
11 3 20 12 20 18 0 7 14 25 30 41 17 16 30 33 30 38 0 4 7 8 16 8 8 0 13 4 10
8 -3 5 3 18 12 28 34 36 132 173 132 183 0 6 5 11 11 11 5 0 7 5 4 10 -3 6 -1
10 4 10 6 0 11 7 11 15 0 8 5 15 10 15 6 0 10 7 10 15 0 7 6 18 14 22 8 4 15
10 16 13 6 32 14 50 23 50 6 0 8 3 4 6 -3 3 5 23 18 44 13 21 21 41 18 44 -4
3 -2 6 4 6 6 0 14 10 18 23 4 12 8 24 10 27 1 3 14 31 28 63 15 32 27 64 27
72 0 8 5 15 10 15 6 0 10 9 10 21 0 11 4 18 9 15 4 -3 7 6 5 19 -1 14 3 25 9
25 5 0 8 3 5 6 -4 3 0 20 7 39 8 18 11 35 8 39 -4 3 -1 6 5 6 7 0 12 8 12 18
0 10 3 22 7 25 3 4 8 19 9 33 2 15 6 34 10 43 4 9 8 25 10 36 8 57 14 79 26
87 10 6 10 8 -2 8 -9 0 -11 3 -5 8 6 4 10 19 10 35 -1 15 3 27 8 27 5 0 5 6
-1 13 -7 8 -7 17 2 30 7 9 12 28 11 42 -2 14 2 25 8 25 8 0 7 3 -2 9 -7 5 -9
11 -4 14 5 3 9 30 8 60 0 30 3 53 7 51 4 -3 5 102 2 233 -5 279 -7 313 -15
313 -3 0 -7 15 -7 33 -3 44 -6 60 -16 76 -7 10 -6 12 4 6 10 -6 11 -4 4 6 -4
8 -10 23 -11 34 -2 11 -6 27 -10 35 -3 8 -7 26 -8 40 -1 14 -3 25 -4 25 -2 0
-4 11 -7 25 -2 14 -7 32 -11 40 -3 8 -5 23 -4 33 1 9 -3 17 -8 17 -6 0 -11 14
-11 31 0 16 -3 28 -7 26 -5 -3 -9 9 -10 26 -1 17 -6 33 -10 36 -8 6 -14 24
-16 53 -1 10 -4 18 -8 18 -7 0 -23 50 -21 63 1 4 -3 7 -9 7 -5 0 -7 5 -4 10 3
6 1 10 -4 10 -6 0 -10 3 -9 8 1 8 -17 59 -32 84 -6 10 -10 26 -10 35 0 16 -2
16 -11 3 -9 -12 -10 -11 -6 8 3 12 2 22 -2 22 -9 0 -41 66 -41 86 0 8 -4 13
-9 10 -4 -3 -17 14 -27 37 -10 23 -25 49 -32 57 -6 8 -12 18 -12 23 0 4 -9 17
-19 29 -11 11 -18 26 -14 31 3 6 1 7 -5 3 -7 -4 -16 2 -21 16 -5 13 -18 34
-30 47 -11 13 -18 28 -15 32 3 5 -1 9 -9 9 -8 0 -21 8 -28 17 -12 15 -12 16 1
8 8 -4 13 -5 10 -2 -24 29 -72 84 -102 118 -21 22 -38 45 -38 50 0 5 -8 9 -17
9 -9 0 -14 3 -10 6 3 4 -11 23 -33 44 -22 21 -36 41 -32 45 4 3 2 5 -4 3 -6
-1 -27 13 -47 32 -34 33 -71 65 -157 139 -19 16 -38 27 -42 25 -4 -3 -8 2 -8
10 0 9 -7 16 -15 16 -7 0 -19 8 -24 18 -6 9 -11 13 -11 8 0 -5 -9 1 -19 13
-11 12 -22 22 -26 21 -4 -1 -17 7 -30 18 -13 11 -25 18 -28 16 -2 -2 -10 2
-17 11 -7 8 -19 15 -26 15 -8 0 -14 3 -14 8 0 4 -10 13 -22 19 -62 32 -94 47
-100 45 -5 -1 -7 3 -5 10 1 7 -2 13 -8 13 -25 2 -55 17 -55 27 0 6 -3 8 -7 5
-3 -4 -17 0 -30 8 -13 9 -23 12 -23 8 0 -5 -4 -2 -9 5 -4 7 -14 15 -22 16 -17
4 -88 33 -112 47 -10 5 -22 7 -27 4 -6 -4 -10 -1 -10 4 0 6 -3 10 -7 9 -5 -1
-21 4 -38 11 -16 7 -42 15 -57 18 -16 3 -28 8 -28 12 0 6 -17 10 -57 13 -7 1
-13 6 -13 11 0 6 -3 8 -6 4 -3 -3 -28 1 -55 9 -27 8 -54 12 -59 9 -5 -3 -12 0
-15 6 -4 5 -13 8 -21 5 -8 -3 -17 1 -21 9 -4 12 -9 13 -18 5 -8 -6 -16 -7 -19
-2 -3 5 -16 8 -28 8 -13 -1 -32 2 -43 7 -11 6 -37 9 -58 9 -21 -1 -36 2 -32 7
3 6 -6 6 -25 1 -17 -5 -28 -5 -26 -1 3 4 -17 7 -44 7 -26 -1 -47 2 -44 6 6 9
-38 4 -55 -7 -9 -5 -12 -4 -8 2 4 7 -38 10 -124 10 -71 0 -132 -4 -135 -9 -3
-4 -11 -5 -17 -1 -15 9 -47 12 -47 3z m355 -191 c4 7 12 8 18 4 7 -5 37 -9 69
-8 31 0 54 -3 52 -6 -2 -4 9 -7 24 -7 15 0 38 -2 52 -5 14 -3 39 -8 55 -11 17
-3 41 -7 55 -11 14 -3 36 -7 50 -10 14 -3 39 -9 57 -14 17 -5 34 -7 37 -3 3 3
6 1 6 -4 0 -5 11 -11 26 -12 14 -1 34 -6 44 -12 10 -5 28 -10 39 -10 12 0 21
-5 21 -11 0 -5 4 -8 9 -4 5 3 12 1 16 -5 4 -6 10 -8 15 -5 5 3 11 1 15 -5 4
-6 10 -8 15 -5 5 3 11 1 15 -5 4 -6 11 -8 16 -5 5 4 9 1 9 -5 0 -6 4 -9 9 -5
5 3 12 1 16 -5 4 -6 11 -8 16 -5 5 4 9 1 9 -4 0 -6 9 -11 20 -11 11 0 20 -4
20 -10 0 -5 8 -10 18 -10 9 0 32 -9 50 -20 18 -11 39 -20 48 -20 8 0 12 -4 9
-10 -3 -5 3 -10 14 -10 12 0 21 -5 21 -11 0 -5 5 -7 10 -4 6 3 10 1 10 -5 0
-7 7 -10 15 -6 8 3 15 1 15 -5 0 -5 11 -14 25 -19 14 -5 25 -14 25 -20 0 -6 4
-9 9 -5 6 3 14 -3 20 -12 6 -10 11 -15 11 -10 0 10 53 -24 93 -59 7 -6 16 -12
22 -15 5 -2 9 -8 7 -12 -1 -5 2 -6 7 -2 6 3 19 -2 29 -12 39 -37 73 -63 83
-63 5 0 7 -4 4 -10 -3 -5 1 -10 9 -10 9 0 16 -5 16 -10 0 -6 11 -16 25 -22 14
-6 25 -17 25 -24 0 -13 29 -29 45 -25 6 2 7 -1 3 -5 -4 -4 20 -35 55 -69 66
-67 128 -135 121 -135 -2 0 10 -13 26 -29 17 -15 30 -36 30 -46 0 -10 3 -16 6
-12 7 7 74 -78 74 -93 0 -6 5 -10 10 -10 6 0 10 -7 10 -15 0 -8 5 -15 10 -15
6 0 10 -7 10 -15 0 -8 5 -15 10 -15 6 0 10 -9 10 -21 0 -11 3 -18 8 -15 4 2
16 -16 27 -40 11 -24 23 -44 28 -44 5 0 6 -7 3 -16 -3 -8 -2 -13 2 -10 5 3 15
-10 22 -29 8 -19 18 -35 24 -35 5 0 7 -3 3 -6 -3 -4 7 -31 24 -60 16 -30 27
-54 24 -54 -3 0 0 -10 7 -22 7 -13 12 -26 13 -30 0 -3 3 -10 8 -14 4 -4 7 -16
7 -26 0 -10 5 -18 11 -18 5 0 7 -4 4 -10 -3 -5 -2 -10 3 -10 6 0 8 -9 5 -20
-3 -12 0 -20 7 -20 7 0 10 -7 7 -15 -4 -8 -3 -17 2 -19 4 -3 14 -30 21 -61 7
-31 17 -58 22 -61 5 -3 6 -10 2 -15 -3 -5 -2 -15 3 -22 5 -7 10 -28 12 -47 2
-19 6 -37 10 -40 4 -3 6 -12 6 -20 -1 -8 4 -33 10 -55 6 -22 10 -55 9 -72 -1
-18 2 -35 7 -39 5 -3 4 -14 -2 -26 -8 -14 -8 -18 0 -14 7 5 10 -9 9 -41 -1
-26 1 -54 5 -60 5 -8 3 -13 -5 -13 -9 0 -10 -3 -2 -8 7 -4 11 -39 10 -94 -1
-53 3 -88 9 -89 6 0 6 -2 0 -5 -6 -2 -10 -27 -9 -54 2 -36 -1 -48 -9 -43 -7 4
-6 -1 2 -10 11 -14 11 -17 0 -17 -10 0 -10 -3 -1 -12 6 -6 8 -18 3 -27 -4 -9
-7 -31 -6 -49 1 -17 -1 -32 -4 -32 -3 0 -7 -16 -8 -35 -4 -75 -6 -85 -17 -85
-6 0 -4 -5 4 -10 8 -5 10 -10 3 -10 -6 0 -10 -8 -8 -18 1 -9 -3 -30 -10 -47
-6 -16 -10 -36 -7 -44 2 -7 -2 -17 -9 -22 -12 -7 -12 -9 0 -9 10 0 11 -3 2
-13 -6 -8 -8 -17 -4 -20 3 -4 2 -7 -3 -7 -9 0 -14 -18 -17 -62 -1 -10 -5 -18
-9 -18 -4 0 -8 -9 -8 -20 0 -11 -5 -20 -11 -20 -5 0 -7 -5 -4 -10 3 -6 3 -16
-2 -23 -4 -6 -8 -18 -9 -25 -2 -8 -6 -21 -10 -30 -4 -9 -8 -19 -9 -22 -1 -3
-8 -21 -16 -40 -7 -19 -12 -38 -11 -42 1 -5 -3 -8 -8 -8 -6 0 -10 -6 -10 -14
0 -21 -26 -67 -34 -59 -4 4 -4 0 -1 -9 4 -9 1 -19 -4 -23 -6 -3 -9 -11 -6 -16
4 -5 3 -9 -2 -9 -4 0 -14 -15 -22 -33 -8 -17 -22 -44 -32 -58 -10 -14 -16 -29
-12 -33 3 -3 1 -6 -5 -6 -7 0 -12 -7 -12 -15 0 -8 -4 -15 -8 -15 -5 0 -14 -16
-22 -35 -7 -19 -17 -32 -21 -30 -4 3 -10 -5 -13 -18 -3 -12 -19 -38 -36 -57
-16 -19 -35 -41 -40 -48 -6 -6 -8 -12 -3 -12 4 0 -2 -7 -13 -15 -10 -8 -16
-15 -12 -15 3 0 -11 -18 -33 -40 -22 -22 -37 -40 -33 -40 3 0 -8 -14 -25 -32
-17 -17 -31 -35 -31 -40 0 -4 -6 -8 -14 -8 -8 0 -17 -8 -21 -17 -3 -10 -19
-28 -34 -40 -24 -19 -28 -20 -28 -5 0 9 4 23 10 30 5 6 5 12 0 12 -10 0 -10
120 0 137 4 6 4 14 -1 17 -10 6 -9 127 1 143 4 7 4 14 -1 17 -10 6 -9 127 1
143 4 7 4 14 -1 17 -7 4 -9 115 -2 141 1 6 1 12 0 15 -7 16 -6 90 2 90 5 0 6
6 1 12 -10 17 -10 228 0 228 4 0 5 6 0 12 -10 18 -10 228 1 228 4 0 4 6 -1 13
-11 14 -11 97 0 114 5 7 4 13 0 13 -5 0 -9 9 -10 20 -1 13 2 18 10 14 9 -5 9
-3 0 6 -9 10 -10 17 -2 27 7 7 7 13 2 13 -4 0 -9 44 -9 98 -1 113 -5 163 -15
177 -5 6 -4 17 1 25 5 8 3 24 -4 39 -8 14 -12 34 -11 44 2 9 0 17 -5 17 -4 0
-10 13 -13 29 -3 16 -13 36 -22 45 -9 9 -14 16 -11 16 5 0 -49 53 -77 75 -19
16 -66 45 -74 47 -5 1 -14 8 -21 15 -7 7 -22 13 -33 13 -10 0 -19 4 -19 9 0 5
-10 12 -22 16 -13 4 -26 8 -30 10 -24 8 -37 11 -56 13 -7 1 -11 6 -8 11 3 4
-6 7 -19 5 -14 -1 -25 1 -25 5 0 4 -17 8 -37 9 -21 2 -40 6 -43 10 -3 4 -16 7
-30 6 -14 0 -31 4 -37 9 -9 6 -13 5 -13 -3 0 -10 -3 -10 -15 0 -12 10 -15 10
-15 -1 0 -11 -2 -11 -8 -1 -5 6 -26 12 -48 12 -21 0 -81 0 -131 1 -51 0 -97
-2 -103 -6 -5 -3 -10 -1 -10 5 0 8 -6 8 -21 0 -11 -7 -27 -9 -35 -6 -8 3 -14
2 -14 -2 0 -4 -15 -8 -33 -9 -54 -4 -81 -8 -94 -16 -8 -5 -13 -3 -13 3 0 6 -5
8 -10 5 -6 -4 -8 -11 -5 -16 3 -5 -1 -6 -9 -3 -8 3 -32 0 -53 -7 -21 -7 -41
-12 -45 -11 -5 1 -8 -2 -8 -7 0 -6 -9 -8 -20 -6 -11 2 -20 0 -20 -6 0 -5 -9
-9 -19 -9 -11 0 -23 -4 -26 -10 -3 -5 -15 -10 -26 -10 -10 0 -19 -5 -19 -11 0
-6 -7 -9 -15 -5 -8 3 -15 1 -15 -4 0 -5 -9 -12 -20 -15 -11 -3 -26 -13 -34
-20 -12 -12 -14 -9 -18 20 -2 19 0 31 6 28 5 -4 6 -1 1 7 -12 19 -13 1900 -2
1924 7 14 11 15 17 6 6 -9 9 -9 15 -1z m-1203 -264 c-11 -17 -11 -35 0 -35 6
0 5 -6 -2 -15 -8 -10 -9 -15 -1 -15 7 0 8 -8 1 -25 -7 -17 -6 -25 1 -25 8 0 7
-5 -1 -15 -9 -11 -9 -15 -1 -15 7 0 9 -5 4 -12 -12 -20 -12 -38 -1 -38 6 0 5
-6 -2 -15 -10 -12 -10 -15 0 -15 9 0 9 -4 -1 -17 -11 -13 -11 -17 -1 -21 10
-3 10 -7 1 -18 -9 -11 -9 -14 1 -14 10 0 10 -3 0 -15 -10 -12 -10 -15 0 -15
10 0 10 -3 0 -15 -10 -12 -10 -15 0 -15 10 0 10 -3 0 -15 -8 -10 -9 -15 -1
-15 7 0 8 -8 1 -25 -7 -17 -6 -25 1 -25 8 0 7 -5 -1 -15 -9 -11 -9 -15 -1 -15
7 0 9 -5 4 -12 -12 -20 -12 -38 -1 -38 6 0 5 -6 -2 -15 -10 -12 -10 -15 0 -15
9 0 9 -4 -1 -17 -11 -13 -11 -17 -1 -21 10 -3 10 -7 1 -18 -9 -11 -9 -14 1
-14 10 0 10 -3 0 -15 -10 -12 -10 -15 0 -15 10 0 10 -3 0 -15 -10 -12 -10 -15
0 -15 10 0 10 -3 0 -15 -8 -10 -9 -15 -1 -15 7 0 8 -8 1 -25 -7 -17 -6 -25 1
-25 8 0 7 -5 -1 -15 -9 -11 -9 -15 -1 -15 7 0 9 -5 4 -12 -11 -18 -10 -42 2
-50 6 -5 5 -8 -4 -8 -11 0 -11 -3 -1 -15 9 -11 9 -15 1 -15 -8 0 -9 -5 -2 -18
7 -13 6 -23 -1 -30 -9 -9 -9 -12 0 -12 8 0 9 -7 2 -25 -7 -17 -6 -25 1 -25 8
0 7 -5 -1 -15 -10 -12 -10 -15 0 -15 9 0 9 -4 -1 -17 -11 -13 -11 -17 -1 -21
10 -3 10 -7 1 -18 -9 -11 -9 -14 1 -14 10 0 10 -3 0 -15 -10 -12 -10 -15 0
-15 10 0 10 -3 0 -15 -10 -12 -10 -15 0 -15 10 0 10 -3 0 -15 -8 -10 -9 -15
-1 -15 7 0 8 -8 1 -25 -7 -17 -6 -25 1 -25 8 0 7 -5 -1 -15 -9 -11 -9 -15 -1
-15 7 0 9 -5 4 -12 -11 -18 -10 -42 2 -50 6 -5 5 -8 -4 -8 -11 0 -11 -3 -1
-15 9 -11 9 -15 1 -15 -8 0 -9 -5 -2 -18 7 -13 6 -23 -1 -30 -9 -9 -9 -12 0
-12 10 0 10 -5 2 -20 -8 -15 -8 -20 2 -20 9 0 9 -3 0 -12 -8 -8 -9 -15 -1 -25
9 -9 8 -13 0 -13 -8 0 -9 -5 -2 -17 6 -11 6 -24 0 -35 -7 -12 -6 -18 1 -18 8
0 8 -6 0 -20 -8 -15 -8 -20 2 -20 9 0 9 -3 0 -12 -8 -8 -9 -15 -1 -25 9 -9 8
-13 0 -13 -8 0 -9 -6 -2 -18 6 -11 6 -24 0 -35 -7 -11 -7 -17 0 -17 6 0 6 -11
1 -30 -6 -21 -5 -30 3 -31 8 0 8 -2 -1 -6 -10 -4 -10 -8 -1 -19 9 -11 9 -14 0
-14 -8 0 -9 -5 -2 -19 6 -10 7 -22 3 -25 -9 -10 -10 -1696 0 -1723 4 -12 4
-24 0 -27 -10 -6 -9 -373 1 -382 4 -4 2 -13 -4 -20 -7 -8 -7 -14 1 -19 7 -4 7
-12 0 -26 -8 -14 -7 -19 1 -19 8 0 8 -4 -1 -15 -10 -12 -10 -15 0 -15 10 0 10
-3 0 -15 -10 -12 -10 -15 0 -15 10 0 10 -3 1 -14 -9 -11 -9 -15 1 -19 7 -3 3
-6 -9 -6 -13 -1 -23 4 -23 9 0 6 -9 10 -20 10 -11 0 -20 4 -20 9 0 5 -11 12
-25 15 -14 4 -25 11 -25 17 0 6 -5 7 -10 4 -6 -3 -13 0 -16 9 -3 9 -12 12 -22
9 -9 -4 -14 -3 -10 2 4 4 -3 14 -17 22 -14 7 -36 19 -50 26 -14 8 -22 17 -18
20 3 4 -1 7 -11 7 -18 0 -22 3 -70 45 -16 13 -33 22 -38 19 -4 -3 -7 0 -6 8 2
7 -3 12 -9 11 -7 -2 -13 2 -13 7 0 6 -23 26 -50 46 -27 20 -50 43 -50 52 0 11
-3 13 -8 6 -5 -9 -11 -8 -20 2 -7 8 -9 14 -5 14 4 0 -4 8 -20 18 -15 10 -24
22 -20 25 3 4 -1 7 -11 7 -9 0 -14 4 -11 10 3 5 1 10 -4 10 -16 0 -51 33 -51
47 0 7 -6 13 -13 13 -8 0 -20 11 -27 25 -7 14 -17 25 -22 25 -4 0 -8 7 -8 15
0 8 -7 15 -17 15 -9 0 -14 3 -10 6 3 3 -3 16 -14 28 -43 46 -79 91 -79 99 0 8
-11 23 -42 58 -10 10 -18 24 -18 29 0 6 -5 10 -11 10 -5 0 -8 4 -4 9 3 6 -3
14 -12 20 -10 6 -14 11 -10 11 4 0 -3 15 -16 33 -13 17 -30 47 -38 65 -8 17
-17 32 -21 32 -5 0 -8 9 -8 20 0 11 -3 20 -7 20 -9 0 -33 49 -33 67 0 7 -5 13
-11 13 -6 0 -8 7 -5 16 3 8 2 12 -4 9 -6 -3 -10 3 -10 14 0 12 -5 21 -10 21
-6 0 -9 3 -8 8 1 4 -11 41 -27 82 -17 41 -30 80 -31 85 -1 12 -12 42 -26 71
-5 11 -8 27 -6 35 2 7 -3 13 -10 11 -8 -1 -11 2 -7 7 3 6 -1 36 -10 68 -9 32
-18 72 -20 88 -2 17 -8 44 -13 62 -6 17 -8 34 -5 37 3 3 0 13 -8 23 -12 14
-12 16 0 8 11 -6 12 -5 5 6 -5 8 -10 30 -12 49 -1 19 -3 42 -4 50 0 8 -6 21
-12 29 -9 12 -8 13 3 6 11 -6 13 -4 7 11 -5 10 -9 49 -9 86 0 39 -4 65 -10 61
-7 -4 -2 9 15 38 1 3 -3 13 -11 22 -7 10 -9 17 -5 17 5 0 9 33 9 73 0 39 3 84
6 100 5 17 4 27 -3 27 -7 0 -7 5 1 14 6 7 9 21 5 30 -3 9 -2 16 2 16 5 0 9 17
8 38 0 20 3 45 8 55 6 12 5 17 -4 17 -10 0 -10 2 -1 8 7 4 13 24 15 45 1 20 6
37 10 37 4 0 6 14 4 30 -2 17 1 30 6 30 6 0 8 6 5 14 -3 8 -3 17 1 21 4 4 8
11 8 16 1 5 3 11 4 14 1 3 4 14 5 25 1 11 3 22 4 25 0 3 1 8 2 13 0 4 6 14 12
22 7 8 12 26 12 40 0 14 3 28 8 31 4 3 9 16 12 28 2 13 9 29 16 37 9 11 9 14
0 14 -8 0 -7 6 3 16 9 8 14 20 11 25 -4 5 -1 9 4 9 6 0 11 9 11 19 0 11 4 22
9 26 5 3 12 19 16 35 4 17 11 30 16 30 5 0 8 3 7 8 -2 9 28 74 39 85 4 5 8 12
8 15 1 14 45 91 55 97 6 4 8 10 5 15 -3 4 2 13 10 20 8 7 12 16 9 21 -3 5 -1
9 5 9 5 0 20 17 32 38 13 20 27 39 31 40 5 2 6 8 3 13 -3 4 3 14 15 21 11 7
20 19 20 26 0 7 7 15 15 18 8 4 13 9 10 14 -2 4 9 20 25 35 16 15 27 31 25 35
-2 4 7 13 21 20 13 8 22 20 20 27 -3 7 1 13 9 13 8 0 15 7 15 16 0 8 5 12 10
9 6 -3 10 -2 10 3 0 10 150 164 150 154 1 -4 6 3 13 15 7 12 15 22 20 22 4 0
23 15 41 32 19 17 36 29 38 27 2 -1 18 11 35 27 44 42 63 57 63 48 0 -4 7 2
15 13 8 10 15 16 15 12 0 -4 14 6 32 22 17 16 35 27 40 24 4 -3 8 0 8 6 0 6 4
9 9 5 6 -3 15 4 21 15 6 11 15 18 19 16 4 -3 17 3 28 14 12 10 23 16 27 13 3
-3 8 2 12 11 3 9 11 13 16 10 6 -4 13 -3 17 2 18 26 88 44 73 19z m1328 -1988
c0 8 9 9 30 3 20 -6 30 -5 30 2 0 7 4 7 13 -1 8 -6 17 -8 20 -4 4 3 7 1 7 -6
0 -7 4 -10 9 -6 5 3 16 -2 24 -10 9 -8 20 -15 26 -15 6 0 7 -7 4 -17 -4 -10
-2 -14 4 -10 6 4 11 -3 11 -16 1 -27 6 -49 13 -62 3 -5 5 -71 5 -145 -1 -79 3
-138 9 -142 6 -5 5 -8 -2 -8 -7 0 -13 -5 -13 -11 0 -5 3 -8 8 -6 4 3 7 -6 7
-19 0 -13 -4 -24 -10 -24 -5 0 -3 -5 5 -10 11 -7 11 -10 2 -10 -9 0 -10 -5 -2
-19 7 -14 6 -21 -3 -24 -9 -3 -9 -7 2 -20 11 -14 11 -17 0 -17 -11 0 -11 -2 1
-10 11 -7 11 -10 2 -10 -10 0 -10 -5 -2 -20 8 -15 8 -20 -2 -20 -9 0 -9 -3 2
-10 11 -7 11 -10 2 -10 -10 0 -10 -5 -2 -20 7 -14 7 -20 0 -20 -5 0 -10 -5
-10 -11 0 -5 3 -8 8 -6 4 3 7 -6 7 -19 0 -13 -4 -24 -10 -24 -5 0 -3 -5 5 -10
11 -7 11 -10 2 -10 -10 0 -10 -5 -2 -20 7 -14 7 -20 0 -20 -5 0 -10 -5 -10
-11 0 -5 3 -8 8 -6 4 3 7 -6 7 -19 0 -13 -4 -24 -10 -24 -5 0 -3 -5 5 -10 11
-7 11 -10 2 -10 -10 0 -10 -5 -2 -20 7 -14 7 -20 0 -20 -5 0 -10 -5 -10 -11 0
-5 3 -8 8 -6 4 3 7 -6 7 -19 0 -13 -4 -24 -10 -24 -5 0 -3 -5 5 -10 8 -5 11
-10 5 -10 -6 0 -8 -40 -5 -110 3 -70 1 -110 -5 -110 -5 0 -3 -5 5 -10 11 -7
11 -10 2 -10 -10 0 -10 -5 -2 -20 7 -14 7 -20 0 -20 -5 0 -10 -5 -10 -11 0 -5
3 -8 8 -6 4 3 7 -6 7 -19 0 -13 -4 -24 -10 -24 -5 0 -3 -5 5 -10 11 -7 11 -10
2 -10 -10 0 -10 -5 -2 -20 7 -14 7 -20 0 -20 -5 0 -10 -5 -10 -11 0 -5 3 -8 8
-6 4 3 7 -6 7 -19 0 -13 -4 -24 -10 -24 -5 0 -3 -5 5 -10 8 -5 11 -10 5 -10
-6 0 -8 -40 -5 -110 3 -70 1 -110 -5 -110 -5 0 -3 -5 5 -10 11 -7 11 -10 2
-10 -10 0 -10 -5 -2 -20 7 -14 7 -20 0 -20 -5 0 -10 -5 -10 -11 0 -5 3 -8 8
-6 4 3 7 -6 7 -19 0 -13 -4 -24 -10 -24 -5 0 -3 -5 5 -10 11 -7 11 -10 2 -10
-10 0 -10 -5 -2 -20 7 -14 7 -20 0 -20 -5 0 -10 -5 -10 -11 0 -5 3 -8 8 -6 4
3 7 -6 7 -19 0 -13 -4 -24 -10 -24 -5 0 -3 -5 5 -10 11 -7 11 -10 2 -10 -10 0
-10 -5 -2 -20 8 -15 8 -20 -2 -20 -9 0 -9 -3 2 -10 11 -7 11 -10 2 -10 -10 0
-10 -5 -2 -20 8 -15 8 -20 -2 -20 -9 0 -9 -3 2 -10 11 -7 11 -10 2 -10 -9 0
-10 -5 -2 -19 7 -14 6 -21 -3 -24 -9 -3 -9 -7 2 -20 11 -14 11 -17 0 -17 -11
0 -11 -2 1 -10 11 -7 11 -10 2 -10 -10 0 -10 -5 -2 -20 8 -15 8 -20 -2 -20 -9
0 -9 -3 2 -10 11 -7 11 -10 2 -10 -9 0 -10 -5 -2 -19 7 -14 6 -21 -3 -24 -9
-3 -9 -7 2 -20 11 -14 11 -17 0 -17 -11 0 -11 -2 1 -10 9 -6 11 -10 3 -10 -7
0 -10 -6 -7 -14 3 -8 1 -23 -5 -33 -6 -11 -11 -13 -11 -5 0 8 -5 10 -12 5 -7
-4 -22 -9 -33 -10 -11 -2 -42 -7 -70 -12 -27 -5 -57 -10 -65 -10 -60 -2 -119
-9 -129 -15 -6 -4 -11 -3 -11 3 0 6 -6 8 -12 6 -10 -4 -13 226 -13 1130 0 624
3 1135 6 1135 4 0 7 10 7 23 -1 42 6 87 14 87 4 0 7 3 6 8 -4 12 34 62 43 56
5 -3 9 3 10 13 0 10 3 13 6 6 3 -9 10 -10 22 -3 10 5 21 6 25 3 3 -3 6 0 6 8
0 11 2 11 10 -1 6 -9 10 -10 10 -3z"/>
</g>
</svg>
